<svg width="594" height="434" viewBox="0 0 594 434" fill="none" xmlns="http://www.w3.org/2000/svg">
<path d="M3 63C132.558 63 314.818 63 514.703 63C556.832 63 591 97.1522 591 139.281V139.281C591 181.41 556.848 215.562 514.719 215.562H89.7228C43.4861 215.562 6.00384 253.044 6.00384 299.281V299.281C6.00384 345.518 43.4861 383 89.7228 383H591" stroke="#37A76B" stroke-width="5" stroke-linecap="round"/>
<path d="M3 60.5C1.61929 60.5 0.5 61.6193 0.5 63C0.5 64.3807 1.61929 65.5 3 65.5L3 60.5ZM3 65.5L211 65.5L211 60.5L3 60.5L3 65.5Z" fill="#F9841A"/>
<g clip-path="url(#clip0_395_7967)">
<path d="M299.343 9.31348C291.146 9.31348 284.5 15.9591 284.5 24.1569C284.5 32.3546 291.146 39.0002 299.343 39.0002C307.541 39.0002 314.187 32.3546 314.187 24.1569H299.343V9.31348Z" fill="#CECECE"/>
<path d="M301.656 7V21.8434H316.5C316.5 13.6456 309.854 7 301.656 7Z" fill="#CECECE"/>
</g>
<circle class="dot" cx="300.5" cy="63" r="5" fill="#CECECE"/>
<path d="M237.638 93.8H241.702C242.742 93.8 243.59 94.152 244.278 94.84C244.966 95.528 245.318 96.376 245.318 97.4C245.318 98.408 244.966 99.272 244.278 99.96C243.59 100.648 242.742 101 241.702 101H239.126V105H237.638V93.8ZM239.126 99.608H241.702C242.326 99.608 242.838 99.4 243.238 98.984C243.638 98.552 243.846 98.024 243.846 97.4C243.846 96.12 242.934 95.192 241.702 95.192H239.126V99.608ZM254.894 105H253.31L252.398 102.488H247.358L246.446 105H244.862L249.038 93.8H250.718L254.894 105ZM249.87 95.576L247.87 101.096H251.886L249.87 95.576ZM254.491 93.8H262.571V95.208H259.259V105H257.787V95.208H254.491V93.8ZM263.132 93.8H271.212V95.208H267.9V105H266.428V95.208H263.132V93.8ZM274.172 100.04V103.592H279.372V105H272.684V93.8H279.292V95.208H274.172V98.648H278.892V100.04H274.172ZM289.457 105H287.809L285.297 100.712H282.657V105H281.169V93.8H285.649C286.609 93.8 287.425 94.136 288.113 94.824C288.801 95.496 289.137 96.312 289.137 97.272C289.137 97.992 288.913 98.664 288.481 99.256C288.049 99.848 287.505 100.28 286.817 100.52L289.457 105ZM285.649 95.192H282.657V99.368H285.649C286.209 99.368 286.673 99.16 287.057 98.76C287.457 98.344 287.649 97.848 287.649 97.272C287.649 96.696 287.457 96.2 287.057 95.8C286.673 95.4 286.209 95.192 285.649 95.192ZM297.91 102.152V93.8H299.398V105H298.198L292.438 96.632V105H290.95V93.8H292.15L297.91 102.152ZM314.594 93.8H316.274V105H314.802V96.248L311.138 102.344H310.946L307.282 96.264V105H305.794V93.8H307.474L311.042 99.72L314.594 93.8ZM327.629 105H326.045L325.133 102.488H320.093L319.181 105H317.597L321.773 93.8H323.453L327.629 105ZM322.605 95.576L320.605 101.096H324.621L322.605 95.576ZM331.99 99.24L337.094 105H335.27L330.438 99.624V105H328.95V93.8H330.438V98.856L335.11 93.8H336.934L331.99 99.24ZM338.419 105V93.8H339.907V105H338.419ZM349.269 102.152V93.8H350.757V105H349.557L343.797 96.632V105H342.309V93.8H343.509L349.269 102.152ZM358.353 99.448H363.953V100.12C363.953 101.576 363.457 102.792 362.449 103.768C361.441 104.728 360.113 105.208 358.465 105.208C356.753 105.208 355.345 104.648 354.225 103.528C353.121 102.392 352.561 101.016 352.561 99.4C352.561 97.784 353.121 96.408 354.225 95.288C355.345 94.152 356.753 93.592 358.433 93.592C359.473 93.592 360.417 93.848 361.281 94.344C362.145 94.84 362.817 95.48 363.281 96.296L362.001 97.048C361.361 95.832 359.969 95.032 358.417 95.032C357.137 95.032 356.081 95.448 355.265 96.296C354.449 97.128 354.033 98.168 354.033 99.4C354.033 100.632 354.449 101.672 355.265 102.504C356.097 103.336 357.169 103.752 358.481 103.752C360.721 103.752 362.161 102.536 362.465 100.792H358.353V99.448Z" fill="#585858"/>
<g clip-path="url(#clip1_395_7967)">
<path d="M470.188 7H461.438C460.92 7 460.5 7.41975 460.5 7.9375V10.125H471.125V7.9375C471.125 7.41975 470.705 7 470.188 7Z" fill="#CECECE"/>
<path d="M492.029 15.9368C491.738 15.7697 491.379 15.7711 491.089 15.9408L481.812 21.3658V16.75C481.812 16.4141 481.633 16.1039 481.341 15.9368C481.05 15.7697 480.692 15.7711 480.402 15.9408L471.125 21.3658V12H460.5V38.0625C460.5 38.5802 460.92 39 461.438 39H491.562C492.08 39 492.5 38.5802 492.5 38.0625V16.75C492.5 16.4141 492.32 16.1039 492.029 15.9368ZM474.875 32.4062C474.875 32.924 474.455 33.3438 473.938 33.3438H470.188C469.67 33.3438 469.25 32.924 469.25 32.4062V28.6562C469.25 28.1385 469.67 27.7188 470.188 27.7188H473.938C474.455 27.7188 474.875 28.1385 474.875 28.6562V32.4062ZM485.562 32.4062C485.562 32.924 485.143 33.3438 484.625 33.3438H480.875C480.357 33.3438 479.938 32.924 479.938 32.4062V28.6562C479.938 28.1385 480.357 27.7188 480.875 27.7188H484.625C485.143 27.7188 485.562 28.1385 485.562 28.6562V32.4062Z" fill="#CECECE"/>
</g>
<circle class="dot" cx="476.5" cy="63" r="5" fill="#CECECE"/>
<path d="M398.031 93.8H399.711V105H398.239V96.248L394.575 102.344H394.383L390.719 96.264V105H389.231V93.8H390.911L394.479 99.72L398.031 93.8ZM411.066 105H409.482L408.57 102.488H403.53L402.618 105H401.034L405.21 93.8H406.89L411.066 105ZM406.042 95.576L404.042 101.096H408.058L406.042 95.576ZM410.663 93.8H418.743V95.208H415.431V105H413.959V95.208H410.663V93.8ZM421.704 100.04V103.592H426.904V105H420.216V93.8H426.824V95.208H421.704V98.648H426.424V100.04H421.704ZM436.988 105H435.34L432.828 100.712H430.188V105H428.7V93.8H433.18C434.14 93.8 434.956 94.136 435.644 94.824C436.332 95.496 436.668 96.312 436.668 97.272C436.668 97.992 436.444 98.664 436.012 99.256C435.58 99.848 435.036 100.28 434.348 100.52L436.988 105ZM433.18 95.192H430.188V99.368H433.18C433.74 99.368 434.204 99.16 434.588 98.76C434.988 98.344 435.18 97.848 435.18 97.272C435.18 96.696 434.988 96.2 434.588 95.8C434.204 95.4 433.74 95.192 433.18 95.192ZM438.481 105V93.8H439.969V105H438.481ZM451.332 105H449.748L448.836 102.488H443.796L442.884 105H441.3L445.476 93.8H447.156L451.332 105ZM446.308 95.576L444.308 101.096H448.324L446.308 95.576ZM454.141 93.8V103.592H458.973V105H452.653V93.8H454.141ZM464.466 93.8H468.53C469.57 93.8 470.418 94.152 471.106 94.84C471.794 95.528 472.146 96.376 472.146 97.4C472.146 98.408 471.794 99.272 471.106 99.96C470.418 100.648 469.57 101 468.53 101H465.954V105H464.466V93.8ZM465.954 99.608H468.53C469.154 99.608 469.666 99.4 470.066 98.984C470.466 98.552 470.674 98.024 470.674 97.4C470.674 96.12 469.762 95.192 468.53 95.192H465.954V99.608ZM482.191 105H480.543L478.031 100.712H475.391V105H473.903V93.8H478.383C479.343 93.8 480.159 94.136 480.847 94.824C481.535 95.496 481.871 96.312 481.871 97.272C481.871 97.992 481.647 98.664 481.215 99.256C480.783 99.848 480.239 100.28 479.551 100.52L482.191 105ZM478.383 95.192H475.391V99.368H478.383C478.943 99.368 479.407 99.16 479.791 98.76C480.191 98.344 480.383 97.848 480.383 97.272C480.383 96.696 480.191 96.2 479.791 95.8C479.407 95.4 478.943 95.192 478.383 95.192ZM485.172 100.04V103.592H490.372V105H483.684V93.8H490.292V95.208H485.172V98.648H489.892V100.04H485.172ZM492.169 93.8H496.233C497.273 93.8 498.121 94.152 498.809 94.84C499.497 95.528 499.849 96.376 499.849 97.4C499.849 98.408 499.497 99.272 498.809 99.96C498.121 100.648 497.273 101 496.233 101H493.657V105H492.169V93.8ZM493.657 99.608H496.233C496.857 99.608 497.369 99.4 497.769 98.984C498.169 98.552 498.377 98.024 498.377 97.4C498.377 96.12 497.465 95.192 496.233 95.192H493.657V99.608ZM509.426 105H507.842L506.93 102.488H501.89L500.978 105H499.394L503.57 93.8H505.25L509.426 105ZM504.402 95.576L502.402 101.096H506.418L504.402 95.576ZM519.035 105H517.387L514.875 100.712H512.235V105H510.747V93.8H515.227C516.187 93.8 517.003 94.136 517.691 94.824C518.379 95.496 518.715 96.312 518.715 97.272C518.715 97.992 518.491 98.664 518.059 99.256C517.627 99.848 517.083 100.28 516.395 100.52L519.035 105ZM515.227 95.192H512.235V99.368H515.227C515.787 99.368 516.251 99.16 516.635 98.76C517.035 98.344 517.227 97.848 517.227 97.272C517.227 96.696 517.035 96.2 516.635 95.8C516.251 95.4 515.787 95.192 515.227 95.192ZM529.488 105H527.904L526.992 102.488H521.952L521.04 105H519.456L523.632 93.8H525.312L529.488 105ZM524.464 95.576L522.464 101.096H526.48L524.464 95.576ZM529.085 93.8H537.165V95.208H533.853V105H532.381V95.208H529.085V93.8ZM538.638 105V93.8H540.126V105H538.638ZM541.936 99.4C541.936 97.784 542.496 96.408 543.616 95.288C544.736 94.152 546.112 93.592 547.728 93.592C549.344 93.592 550.72 94.152 551.84 95.288C552.976 96.408 553.536 97.784 553.536 99.4C553.536 101.016 552.976 102.376 551.84 103.512C550.72 104.648 549.344 105.208 547.728 105.208C546.112 105.208 544.736 104.648 543.616 103.512C542.496 102.376 541.936 101.016 541.936 99.4ZM552.048 99.4C552.048 98.168 551.632 97.128 550.8 96.296C549.984 95.448 548.96 95.032 547.728 95.032C546.496 95.032 545.472 95.448 544.64 96.296C543.824 97.128 543.408 98.168 543.408 99.4C543.408 100.632 543.824 101.656 544.64 102.504C545.472 103.336 546.496 103.752 547.728 103.752C548.96 103.752 549.984 103.336 550.8 102.504C551.632 101.656 552.048 100.632 552.048 99.4ZM562.285 102.152V93.8H563.773V105H562.573L556.813 96.632V105H555.325V93.8H556.525L562.285 102.152Z" fill="#585858"/>
<g clip-path="url(#clip2_395_7967)">
<path d="M122.851 11.3112C118.388 6.84806 111.16 6.83984 106.697 11.303C102.234 15.7662 102.222 23.0146 106.685 27.4777C110.577 31.3698 116.605 31.8391 120.997 28.9826L127.635 35.6201L130.867 32.3877L124.249 25.7695C127.241 21.3173 126.778 15.2379 122.851 11.3112ZM119.635 24.2248C116.962 26.8984 112.611 26.8984 109.938 24.2248C107.264 21.5513 107.264 17.2009 109.938 14.5274C112.611 11.8538 116.962 11.8538 119.635 14.5274C122.309 17.2009 122.309 21.5513 119.635 24.2248Z" fill="#37A76B"/>
</g>
<circle class="dot dot-animation" cx="118" cy="64.2549" r="5" fill="#F9841A"/>
<path fill-rule="evenodd" clip-rule="evenodd" d="M129.499 64.2533C129.499 70.6051 124.35 75.7542 117.998 75.7542C111.73 75.7542 106.634 70.7401 106.5 64.5041C106.497 64.3661 106.386 64.2533 106.247 64.2533C106.109 64.2533 105.997 64.3661 106 64.5041C106.134 71.0163 111.454 76.2542 117.998 76.2542C124.626 76.2542 129.999 70.8812 129.999 64.2533C129.999 57.7092 124.761 52.3885 118.249 52.2549C118.111 52.2521 117.998 52.3643 117.998 52.5024C117.998 52.6404 118.111 52.7521 118.249 52.755C124.485 52.8885 129.499 57.9853 129.499 64.2533Z" fill="#F9841A"/>
<path d="M30.1285 105.462C28.0325 105.462 26.4805 104.422 25.8885 102.71L27.1685 101.974C27.6005 103.334 28.6085 104.006 30.1605 104.006C31.6965 104.006 32.5285 103.318 32.5285 102.278C32.5285 101.75 32.3205 101.35 31.9205 101.078C31.5205 100.806 30.8325 100.534 29.8885 100.23L28.8165 99.8779C28.5765 99.7819 28.2565 99.6379 27.8885 99.4619C27.5205 99.2699 27.2485 99.0779 27.0725 98.8859C26.7045 98.4859 26.3685 97.8299 26.3685 97.0139C26.3685 96.0379 26.7045 95.2699 27.3925 94.7099C28.0805 94.1339 28.9125 93.8459 29.8885 93.8459C31.6645 93.8459 33.0245 94.8219 33.6805 96.2939L32.4325 97.0139C31.9525 95.8619 31.1045 95.2859 29.8885 95.2859C28.6725 95.2859 27.8565 95.9259 27.8565 96.9499C27.8565 97.4459 28.0325 97.8139 28.3845 98.0699C28.7365 98.3259 29.3445 98.5979 30.2085 98.8699L30.8645 99.0779C30.9925 99.1259 31.1845 99.1899 31.4565 99.3019C32.0165 99.5099 32.1445 99.5899 32.5765 99.8299C33.0245 100.07 33.1685 100.246 33.4405 100.566C33.8405 100.966 34.0005 101.542 34.0005 102.246C34.0005 103.222 33.6485 104.006 32.9285 104.598C32.2085 105.174 31.2805 105.462 30.1285 105.462ZM38.7244 99.4939L43.8284 105.254H42.0044L37.1724 99.8779V105.254H35.6844V94.0539H37.1724V99.1099L41.8444 94.0539H43.6684L38.7244 99.4939ZM46.6411 100.294V103.846H51.8411V105.254H45.1531V94.0539H51.7611V95.4619H46.6411V98.9019H51.3611V100.294H46.6411ZM52.7255 94.0539H60.8055V95.4619H57.4935V105.254H56.0215V95.4619H52.7255V94.0539ZM66.9015 105.462C65.2055 105.462 63.7975 104.902 62.6935 103.782C61.5895 102.662 61.0455 101.286 61.0455 99.6539C61.0455 98.0219 61.5895 96.6459 62.6935 95.5259C63.7975 94.4059 65.2055 93.8459 66.9015 93.8459C68.9495 93.8459 70.7735 94.9019 71.7335 96.5659L70.4375 97.3179C69.7975 96.0859 68.4375 95.2859 66.9015 95.2859C65.6055 95.2859 64.5495 95.7019 63.7335 96.5339C62.9175 97.3659 62.5175 98.4059 62.5175 99.6539C62.5175 100.886 62.9175 101.926 63.7335 102.758C64.5495 103.59 65.6055 104.006 66.9015 104.006C68.4375 104.006 69.7975 103.206 70.4375 101.99L71.7335 102.726C71.2695 103.558 70.5975 104.23 69.7335 104.726C68.8695 105.222 67.9255 105.462 66.9015 105.462ZM80.3468 98.8059V94.0539H81.8188V105.254H80.3468V100.214H74.9068V105.254H73.4188V94.0539H74.9068V98.8059H80.3468ZM85.7036 100.294V103.846H90.9036V105.254H84.2156V94.0539H90.8236V95.4619H85.7036V98.9019H90.4236V100.294H85.7036ZM96.316 105.462C94.22 105.462 92.668 104.422 92.076 102.71L93.356 101.974C93.788 103.334 94.796 104.006 96.348 104.006C97.884 104.006 98.716 103.318 98.716 102.278C98.716 101.75 98.508 101.35 98.108 101.078C97.708 100.806 97.02 100.534 96.076 100.23L95.004 99.8779C94.764 99.7819 94.444 99.6379 94.076 99.4619C93.708 99.2699 93.436 99.0779 93.26 98.8859C92.892 98.4859 92.556 97.8299 92.556 97.0139C92.556 96.0379 92.892 95.2699 93.58 94.7099C94.268 94.1339 95.1 93.8459 96.076 93.8459C97.852 93.8459 99.212 94.8219 99.868 96.2939L98.62 97.0139C98.14 95.8619 97.292 95.2859 96.076 95.2859C94.86 95.2859 94.044 95.9259 94.044 96.9499C94.044 97.4459 94.22 97.8139 94.572 98.0699C94.924 98.3259 95.532 98.5979 96.396 98.8699L97.052 99.0779C97.18 99.1259 97.372 99.1899 97.644 99.3019C98.204 99.5099 98.332 99.5899 98.764 99.8299C99.212 100.07 99.356 100.246 99.628 100.566C100.028 100.966 100.188 101.542 100.188 102.246C100.188 103.222 99.836 104.006 99.116 104.598C98.396 105.174 97.468 105.462 96.316 105.462ZM107.342 108.454H105.95V93.7339H107.342V108.454ZM112.835 94.0539H120.915V95.4619H117.603V105.254H116.131V95.4619H112.835V94.0539ZM123.876 100.294V103.846H129.076V105.254H122.388V94.0539H128.996V95.4619H123.876V98.9019H128.596V100.294H123.876ZM136.058 105.462C134.362 105.462 132.954 104.902 131.85 103.782C130.746 102.662 130.202 101.286 130.202 99.6539C130.202 98.0219 130.746 96.6459 131.85 95.5259C132.954 94.4059 134.362 93.8459 136.058 93.8459C138.106 93.8459 139.93 94.9019 140.89 96.5659L139.594 97.3179C138.954 96.0859 137.594 95.2859 136.058 95.2859C134.762 95.2859 133.706 95.7019 132.89 96.5339C132.074 97.3659 131.674 98.4059 131.674 99.6539C131.674 100.886 132.074 101.926 132.89 102.758C133.706 103.59 134.762 104.006 136.058 104.006C137.594 104.006 138.954 103.206 139.594 101.99L140.89 102.726C140.426 103.558 139.754 104.23 138.89 104.726C138.026 105.222 137.082 105.462 136.058 105.462ZM149.503 98.8059V94.0539H150.975V105.254H149.503V100.214H144.063V105.254H142.575V94.0539H144.063V98.8059H149.503ZM160.988 105.462C158.892 105.462 157.34 104.422 156.748 102.71L158.028 101.974C158.46 103.334 159.468 104.006 161.02 104.006C162.556 104.006 163.388 103.318 163.388 102.278C163.388 101.75 163.18 101.35 162.78 101.078C162.38 100.806 161.692 100.534 160.748 100.23L159.676 99.8779C159.436 99.7819 159.116 99.6379 158.748 99.4619C158.38 99.2699 158.108 99.0779 157.932 98.8859C157.564 98.4859 157.228 97.8299 157.228 97.0139C157.228 96.0379 157.564 95.2699 158.252 94.7099C158.94 94.1339 159.772 93.8459 160.748 93.8459C162.524 93.8459 163.884 94.8219 164.54 96.2939L163.292 97.0139C162.812 95.8619 161.964 95.2859 160.748 95.2859C159.532 95.2859 158.716 95.9259 158.716 96.9499C158.716 97.4459 158.892 97.8139 159.244 98.0699C159.596 98.3259 160.204 98.5979 161.068 98.8699L161.724 99.0779C161.852 99.1259 162.044 99.1899 162.316 99.3019C162.876 99.5099 163.004 99.5899 163.436 99.8299C163.884 100.07 164.028 100.246 164.3 100.566C164.7 100.966 164.86 101.542 164.86 102.246C164.86 103.222 164.508 104.006 163.788 104.598C163.068 105.174 162.14 105.462 160.988 105.462ZM173.472 98.8059V94.0539H174.944V105.254H173.472V100.214H168.032V105.254H166.544V94.0539H168.032V98.8059H173.472ZM178.829 100.294V103.846H184.029V105.254H177.341V94.0539H183.949V95.4619H178.829V98.9019H183.549V100.294H178.829ZM187.313 100.294V103.846H192.513V105.254H185.825V94.0539H192.433V95.4619H187.313V98.9019H192.033V100.294H187.313ZM193.397 94.0539H201.477V95.4619H198.165V105.254H196.693V95.4619H193.397V94.0539ZM206.254 105.462C204.158 105.462 202.606 104.422 202.014 102.71L203.294 101.974C203.726 103.334 204.734 104.006 206.286 104.006C207.822 104.006 208.654 103.318 208.654 102.278C208.654 101.75 208.446 101.35 208.046 101.078C207.646 100.806 206.958 100.534 206.014 100.23L204.942 99.8779C204.702 99.7819 204.382 99.6379 204.014 99.4619C203.646 99.2699 203.374 99.0779 203.198 98.8859C202.83 98.4859 202.493 97.8299 202.493 97.0139C202.493 96.0379 202.83 95.2699 203.518 94.7099C204.206 94.1339 205.038 93.8459 206.014 93.8459C207.79 93.8459 209.15 94.8219 209.806 96.2939L208.558 97.0139C208.078 95.8619 207.23 95.2859 206.014 95.2859C204.798 95.2859 203.982 95.9259 203.982 96.9499C203.982 97.4459 204.158 97.8139 204.51 98.0699C204.862 98.3259 205.47 98.5979 206.334 98.8699L206.99 99.0779C207.118 99.1259 207.31 99.1899 207.582 99.3019C208.142 99.5099 208.27 99.5899 208.702 99.8299C209.15 100.07 209.294 100.246 209.566 100.566C209.966 100.966 210.126 101.542 210.126 102.246C210.126 103.222 209.774 104.006 209.054 104.598C208.334 105.174 207.406 105.462 206.254 105.462Z" fill="#297A4F"/>
<g clip-path="url(#clip3_395_7967)">
<path d="M473.416 167.009H481.583V174.038H473.416V167.009Z" fill="#CECECE"/>
<path d="M492.562 167.009H483.458V174.975C483.458 175.493 483.039 175.913 482.521 175.913H472.479C471.961 175.913 471.542 175.493 471.542 174.975V167.009H462.438C461.92 167.009 461.5 167.429 461.5 167.946V194.055C461.5 194.572 461.92 194.992 462.438 194.992H492.562C493.08 194.992 493.5 194.572 493.5 194.055V167.946C493.5 167.429 493.08 167.009 492.562 167.009ZM488.205 185.68C487.838 186.046 487.245 186.046 486.879 185.68L486.471 185.272V189.034C486.471 189.552 486.051 189.971 485.533 189.971C485.016 189.971 484.596 189.552 484.596 189.034V185.272L484.188 185.68C483.822 186.046 483.228 186.046 482.862 185.68C482.496 185.314 482.496 184.72 482.862 184.354L484.87 182.346C485.236 181.98 485.83 181.98 486.196 182.346L488.205 184.354C488.571 184.72 488.571 185.314 488.205 185.68Z" fill="#CECECE"/>
</g>
<circle class="dot" cx="477.5" cy="216" r="5" fill="#CECECE"/>
<path d="M450.495 244.208C448.799 244.208 447.391 243.648 446.287 242.528C445.183 241.408 444.639 240.032 444.639 238.4C444.639 236.768 445.183 235.392 446.287 234.272C447.391 233.152 448.799 232.592 450.495 232.592C452.543 232.592 454.367 233.648 455.327 235.312L454.031 236.064C453.391 234.832 452.031 234.032 450.495 234.032C449.199 234.032 448.143 234.448 447.327 235.28C446.511 236.112 446.111 237.152 446.111 238.4C446.111 239.632 446.511 240.672 447.327 241.504C448.143 242.336 449.199 242.752 450.495 242.752C452.031 242.752 453.391 241.952 454.031 240.736L455.327 241.472C454.863 242.304 454.191 242.976 453.327 243.472C452.463 243.968 451.519 244.208 450.495 244.208ZM456.868 240.24V232.8H458.357V240.176C458.357 241.76 459.333 242.752 461.077 242.752C462.821 242.752 463.797 241.76 463.797 240.176V232.8H465.269V240.24C465.269 241.44 464.885 242.416 464.101 243.136C463.317 243.856 462.309 244.208 461.077 244.208C459.845 244.208 458.821 243.856 458.037 243.136C457.253 242.416 456.868 241.44 456.868 240.24ZM466.632 232.8H474.712V234.208H471.4V244H469.928V234.208H466.632V232.8ZM475.272 232.8H483.352V234.208H480.04V244H478.568V234.208H475.272V232.8ZM484.825 244V232.8H486.313V244H484.825ZM495.676 241.152V232.8H497.164V244H495.964L490.204 235.632V244H488.716V232.8H489.916L495.676 241.152ZM504.759 238.448H510.359V239.12C510.359 240.576 509.863 241.792 508.855 242.768C507.847 243.728 506.519 244.208 504.871 244.208C503.159 244.208 501.751 243.648 500.631 242.528C499.527 241.392 498.967 240.016 498.967 238.4C498.967 236.784 499.527 235.408 500.631 234.288C501.751 233.152 503.159 232.592 504.839 232.592C505.879 232.592 506.823 232.848 507.687 233.344C508.551 233.84 509.223 234.48 509.687 235.296L508.407 236.048C507.767 234.832 506.375 234.032 504.823 234.032C503.543 234.032 502.487 234.448 501.671 235.296C500.855 236.128 500.439 237.168 500.439 238.4C500.439 239.632 500.855 240.672 501.671 241.504C502.503 242.336 503.575 242.752 504.887 242.752C507.127 242.752 508.567 241.536 508.871 239.792H504.759V238.448Z" fill="#585858"/>
<g clip-path="url(#clip4_395_7967)">
<path d="M300.5 170.588C303.042 170.588 305.374 171.505 307.184 173.025L311.149 169.06C308.215 166.436 304.468 165 300.5 165C296.226 165 292.208 166.664 289.186 169.686C287.444 171.428 286.154 173.502 285.373 175.764L290.774 177.285C292.273 173.373 296.067 170.588 300.5 170.588Z" fill="#CECECE"/>
<path d="M300.501 172.466C295.795 172.466 291.967 176.294 291.967 181C291.967 185.706 295.795 189.534 300.501 189.534C305.207 189.534 309.035 185.706 309.035 181C309.035 176.294 305.207 172.466 300.501 172.466ZM301.792 185.728H301.437V187.064H299.56V185.728H297.316V183.85H301.792C302.316 183.85 302.743 183.424 302.743 182.899C302.743 182.374 302.316 181.948 301.792 181.948H299.715C298.195 181.948 296.959 180.712 296.959 179.192C296.959 177.725 298.112 176.522 299.56 176.442V175.101H301.438V176.437H303.222V178.315H299.715C299.231 178.315 298.837 178.708 298.837 179.192C298.837 179.676 299.231 180.07 299.715 180.07H301.792C303.352 180.07 304.621 181.339 304.621 182.899C304.621 184.459 303.352 185.728 301.792 185.728Z" fill="#CECECE"/>
<path d="M310.911 181C310.911 184.567 309.108 187.72 306.365 189.597L309.109 194.492C310.075 193.873 310.982 193.145 311.813 192.314C314.835 189.292 316.499 185.274 316.499 181C316.499 177.05 315.076 173.318 312.474 170.39L308.509 174.355C310.008 176.16 310.911 178.476 310.911 181Z" fill="#CECECE"/>
<path d="M300.5 191.412C294.759 191.412 290.088 186.741 290.088 181C290.088 180.349 290.149 179.711 290.264 179.093L284.867 177.572C284.625 178.686 284.5 179.834 284.5 181C284.5 185.274 286.164 189.292 289.186 192.314C292.208 195.336 296.226 197 300.5 197C302.955 197 305.325 196.45 307.471 195.41L304.728 190.514C303.435 191.091 302.004 191.412 300.5 191.412Z" fill="#CECECE"/>
</g>
<circle class="dot" cx="300.5" cy="216" r="5" fill="#CECECE"/>
<path d="M274.816 244.208C272.72 244.208 271.168 243.168 270.576 241.456L271.856 240.72C272.288 242.08 273.296 242.752 274.848 242.752C276.384 242.752 277.216 242.064 277.216 241.024C277.216 240.496 277.008 240.096 276.608 239.824C276.208 239.552 275.52 239.28 274.576 238.976L273.504 238.624C273.264 238.528 272.944 238.384 272.576 238.208C272.208 238.016 271.936 237.824 271.76 237.632C271.392 237.232 271.056 236.576 271.056 235.76C271.056 234.784 271.392 234.016 272.08 233.456C272.768 232.88 273.6 232.592 274.576 232.592C276.352 232.592 277.712 233.568 278.368 235.04L277.12 235.76C276.64 234.608 275.792 234.032 274.576 234.032C273.36 234.032 272.544 234.672 272.544 235.696C272.544 236.192 272.72 236.56 273.072 236.816C273.424 237.072 274.032 237.344 274.896 237.616L275.552 237.824C275.68 237.872 275.872 237.936 276.144 238.048C276.704 238.256 276.832 238.336 277.264 238.576C277.712 238.816 277.856 238.992 278.128 239.312C278.528 239.712 278.688 240.288 278.688 240.992C278.688 241.968 278.336 242.752 277.616 243.344C276.896 243.92 275.968 244.208 274.816 244.208ZM281.86 239.04V242.592H287.06V244H280.372V232.8H286.98V234.208H281.86V237.648H286.58V239.04H281.86ZM293 244H291.272L288.056 232.8H289.624L292.184 242.016L294.904 232.8H296.408L299.128 242.016L301.688 232.8H303.256L300.04 244H298.312L295.656 235.056L293 244ZM304.856 244V232.8H306.344V244H304.856ZM315.707 241.152V232.8H317.195V244H315.995L310.235 235.632V244H308.747V232.8H309.947L315.707 241.152ZM324.791 238.448H330.391V239.12C330.391 240.576 329.895 241.792 328.887 242.768C327.879 243.728 326.551 244.208 324.903 244.208C323.191 244.208 321.783 243.648 320.663 242.528C319.559 241.392 318.999 240.016 318.999 238.4C318.999 236.784 319.559 235.408 320.663 234.288C321.783 233.152 323.191 232.592 324.871 232.592C325.911 232.592 326.855 232.848 327.719 233.344C328.583 233.84 329.255 234.48 329.719 235.296L328.439 236.048C327.799 234.832 326.407 234.032 324.855 234.032C323.575 234.032 322.519 234.448 321.703 235.296C320.887 236.128 320.471 237.168 320.471 238.4C320.471 239.632 320.887 240.672 321.703 241.504C322.535 242.336 323.607 242.752 324.919 242.752C327.159 242.752 328.599 241.536 328.903 239.792H324.791V238.448Z" fill="#585858"/>
<g clip-path="url(#clip5_395_7967)">
<path d="M111.875 185.688H128.813C129.232 185.688 129.6 185.41 129.714 185.008L133.464 171.882C133.544 171.599 133.489 171.295 133.312 171.06C133.134 170.826 132.858 170.687 132.563 170.687H109.711L109.041 167.672C108.945 167.242 108.564 166.938 108.125 166.938H102.437C101.919 166.938 101.5 167.357 101.5 167.875C101.5 168.393 101.919 168.812 102.437 168.812H107.373L110.758 184.047C109.762 184.48 109.062 185.471 109.062 186.625C109.062 188.176 110.324 189.438 111.875 189.438H128.813C129.331 189.438 129.75 189.019 129.75 188.5C129.75 187.982 129.331 187.563 128.813 187.563H111.875C111.359 187.563 110.937 187.143 110.937 186.625C110.937 186.108 111.359 185.688 111.875 185.688Z" fill="#CECECE"/>
<path d="M110.938 192.25C110.938 193.801 112.199 195.062 113.75 195.062C115.301 195.062 116.563 193.801 116.563 192.25C116.563 190.699 115.301 189.438 113.75 189.438C112.199 189.438 110.938 190.699 110.938 192.25Z" fill="#CECECE"/>
<path d="M124.125 192.25C124.125 193.801 125.387 195.062 126.937 195.062C128.489 195.062 129.75 193.801 129.75 192.25C129.75 190.699 128.489 189.438 126.937 189.438C125.387 189.438 124.125 190.699 124.125 192.25Z" fill="#CECECE"/>
</g>
<circle class="dot" cx="117.5" cy="216" r="5" fill="#CECECE"/>
<path d="M88.1402 232.8V234.208H83.1802V237.84H87.9322V239.248H83.1802V244H81.6922V232.8H88.1402ZM89.9422 244V232.8H91.4302V244H89.9422ZM100.793 241.152V232.8H102.281V244H101.081L95.3208 235.632V244H93.8328V232.8H95.0328L100.793 241.152ZM104.677 244V232.8H106.165V244H104.677ZM112.011 244.208C109.915 244.208 108.363 243.168 107.771 241.456L109.051 240.72C109.483 242.08 110.491 242.752 112.043 242.752C113.579 242.752 114.411 242.064 114.411 241.024C114.411 240.496 114.203 240.096 113.803 239.824C113.403 239.552 112.715 239.28 111.771 238.976L110.699 238.624C110.459 238.528 110.139 238.384 109.771 238.208C109.403 238.016 109.131 237.824 108.955 237.632C108.587 237.232 108.251 236.576 108.251 235.76C108.251 234.784 108.587 234.016 109.275 233.456C109.963 232.88 110.795 232.592 111.771 232.592C113.547 232.592 114.907 233.568 115.563 235.04L114.315 235.76C113.835 234.608 112.987 234.032 111.771 234.032C110.555 234.032 109.739 234.672 109.739 235.696C109.739 236.192 109.915 236.56 110.267 236.816C110.619 237.072 111.227 237.344 112.091 237.616L112.747 237.824C112.875 237.872 113.067 237.936 113.339 238.048C113.899 238.256 114.027 238.336 114.459 238.576C114.907 238.816 115.051 238.992 115.323 239.312C115.723 239.712 115.883 240.288 115.883 240.992C115.883 241.968 115.531 242.752 114.811 243.344C114.091 243.92 113.163 244.208 112.011 244.208ZM124.495 237.552V232.8H125.967V244H124.495V238.96H119.055V244H117.567V232.8H119.055V237.552H124.495ZM128.364 244V232.8H129.852V244H128.364ZM139.215 241.152V232.8H140.703V244H139.503L133.743 235.632V244H132.255V232.8H133.455L139.215 241.152ZM148.298 238.448H153.898V239.12C153.898 240.576 153.402 241.792 152.394 242.768C151.386 243.728 150.058 244.208 148.41 244.208C146.698 244.208 145.29 243.648 144.17 242.528C143.066 241.392 142.506 240.016 142.506 238.4C142.506 236.784 143.066 235.408 144.17 234.288C145.29 233.152 146.698 232.592 148.378 232.592C149.418 232.592 150.362 232.848 151.226 233.344C152.09 233.84 152.762 234.48 153.226 235.296L151.946 236.048C151.306 234.832 149.914 234.032 148.362 234.032C147.082 234.032 146.026 234.448 145.21 235.296C144.394 236.128 143.978 237.168 143.978 238.4C143.978 239.632 144.394 240.672 145.21 241.504C146.042 242.336 147.114 242.752 148.426 242.752C150.666 242.752 152.106 241.536 152.41 239.792H148.298V238.448Z" fill="#585858"/>
<g clip-path="url(#clip6_395_7967)">
<path d="M118 345.914C121.003 345.914 123.438 343.48 123.438 340.477C123.438 337.474 121.003 335.039 118 335.039C114.997 335.039 112.562 337.474 112.562 340.477C112.562 343.48 114.997 345.914 118 345.914Z" fill="#CECECE"/>
<path d="M129 345.914C130.898 345.914 132.438 344.375 132.438 342.477C132.438 340.578 130.898 339.039 129 339.039C127.102 339.039 125.562 340.578 125.562 342.477C125.562 344.375 127.102 345.914 129 345.914Z" fill="#CECECE"/>
<path d="M107 345.914C108.898 345.914 110.438 344.375 110.438 342.477C110.438 340.578 108.898 339.039 107 339.039C105.102 339.039 103.562 340.578 103.562 342.477C103.562 344.375 105.102 345.914 107 345.914Z" fill="#CECECE"/>
<path d="M110.387 349.001C109.034 347.892 107.808 348.039 106.244 348.039C103.904 348.039 102 349.931 102 352.257V359.082C102 360.092 102.824 360.914 103.838 360.914C108.215 360.914 107.688 360.993 107.688 360.725C107.688 355.888 107.115 352.341 110.387 349.001Z" fill="#CECECE"/>
<path d="M119.488 348.064C116.756 347.836 114.38 348.067 112.331 349.758C108.903 352.504 109.563 356.202 109.563 360.725C109.563 361.922 110.536 362.914 111.751 362.914C124.944 362.914 125.469 363.34 126.251 361.607C126.508 361.021 126.438 361.207 126.438 355.603C126.438 351.151 122.583 348.064 119.488 348.064Z" fill="#CECECE"/>
<path d="M129.756 348.039C128.183 348.039 126.965 347.894 125.613 349.001C128.861 352.317 128.313 355.622 128.313 360.726C128.313 360.995 127.875 360.914 132.096 360.914C133.146 360.914 134 360.064 134 359.018V352.258C134 349.932 132.096 348.039 129.756 348.039Z" fill="#CECECE"/>
</g>
<circle class="dot" cx="118" cy="384" r="5" fill="#CECECE"/>
<path d="M89.7374 426.208C88.0414 426.208 86.6334 425.648 85.5294 424.528C84.4254 423.408 83.8814 422.032 83.8814 420.4C83.8814 418.768 84.4254 417.392 85.5294 416.272C86.6334 415.152 88.0414 414.592 89.7374 414.592C91.7854 414.592 93.6094 415.648 94.5694 417.312L93.2734 418.064C92.6334 416.832 91.2734 416.032 89.7374 416.032C88.4414 416.032 87.3854 416.448 86.5694 417.28C85.7534 418.112 85.3534 419.152 85.3534 420.4C85.3534 421.632 85.7534 422.672 86.5694 423.504C87.3854 424.336 88.4414 424.752 89.7374 424.752C91.2734 424.752 92.6334 423.952 93.2734 422.736L94.5694 423.472C94.1054 424.304 93.4334 424.976 92.5694 425.472C91.7054 425.968 90.7614 426.208 89.7374 426.208ZM95.7096 420.4C95.7096 418.784 96.2696 417.408 97.3896 416.288C98.5096 415.152 99.8856 414.592 101.502 414.592C103.118 414.592 104.494 415.152 105.614 416.288C106.75 417.408 107.31 418.784 107.31 420.4C107.31 422.016 106.75 423.376 105.614 424.512C104.494 425.648 103.118 426.208 101.502 426.208C99.8856 426.208 98.5096 425.648 97.3896 424.512C96.2696 423.376 95.7096 422.016 95.7096 420.4ZM105.822 420.4C105.822 419.168 105.406 418.128 104.574 417.296C103.758 416.448 102.734 416.032 101.502 416.032C100.27 416.032 99.2456 416.448 98.4136 417.296C97.5976 418.128 97.1816 419.168 97.1816 420.4C97.1816 421.632 97.5976 422.656 98.4136 423.504C99.2456 424.336 100.27 424.752 101.502 424.752C102.734 424.752 103.758 424.336 104.574 423.504C105.406 422.656 105.822 421.632 105.822 420.4ZM112.714 426.208C110.618 426.208 109.066 425.168 108.474 423.456L109.754 422.72C110.186 424.08 111.194 424.752 112.746 424.752C114.282 424.752 115.114 424.064 115.114 423.024C115.114 422.496 114.906 422.096 114.506 421.824C114.106 421.552 113.418 421.28 112.474 420.976L111.402 420.624C111.162 420.528 110.842 420.384 110.474 420.208C110.106 420.016 109.834 419.824 109.658 419.632C109.29 419.232 108.954 418.576 108.954 417.76C108.954 416.784 109.29 416.016 109.978 415.456C110.666 414.88 111.498 414.592 112.474 414.592C114.25 414.592 115.61 415.568 116.266 417.04L115.018 417.76C114.538 416.608 113.69 416.032 112.474 416.032C111.258 416.032 110.442 416.672 110.442 417.696C110.442 418.192 110.618 418.56 110.97 418.816C111.322 419.072 111.93 419.344 112.794 419.616L113.45 419.824C113.578 419.872 113.77 419.936 114.042 420.048C114.602 420.256 114.73 420.336 115.162 420.576C115.61 420.816 115.754 420.992 116.026 421.312C116.426 421.712 116.586 422.288 116.586 422.992C116.586 423.968 116.234 424.752 115.514 425.344C114.794 425.92 113.866 426.208 112.714 426.208ZM117.03 414.8H125.11V416.208H121.798V426H120.326V416.208H117.03V414.8ZM126.583 426V414.8H128.071V426H126.583ZM137.433 423.152V414.8H138.921V426H137.721L131.961 417.632V426H130.473V414.8H131.673L137.433 423.152ZM146.517 420.448H152.117V421.12C152.117 422.576 151.621 423.792 150.613 424.768C149.605 425.728 148.277 426.208 146.629 426.208C144.917 426.208 143.509 425.648 142.389 424.528C141.285 423.392 140.725 422.016 140.725 420.4C140.725 418.784 141.285 417.408 142.389 416.288C143.509 415.152 144.917 414.592 146.597 414.592C147.637 414.592 148.581 414.848 149.445 415.344C150.309 415.84 150.981 416.48 151.445 417.296L150.165 418.048C149.525 416.832 148.133 416.032 146.581 416.032C145.301 416.032 144.245 416.448 143.429 417.296C142.613 418.128 142.197 419.168 142.197 420.4C142.197 421.632 142.613 422.672 143.429 423.504C144.261 424.336 145.333 424.752 146.645 424.752C148.885 424.752 150.325 423.536 150.629 421.792H146.517V420.448Z" fill="#585858"/>
<g clip-path="url(#clip7_395_7967)">
<path d="M489.137 340.344L477.045 333.15C476.708 332.95 476.29 332.95 475.954 333.15L463.861 340.344C463.538 340.536 463.34 340.885 463.34 341.261V345.367C463.34 354.017 468.337 361.917 476.114 364.928C476.362 365.024 476.636 365.024 476.884 364.928C484.642 361.925 489.658 354.042 489.658 345.367V341.261C489.658 340.885 489.46 340.536 489.137 340.344ZM481.769 346.603L475.084 353.288C474.667 353.705 473.992 353.705 473.575 353.288L471.229 350.942C470.812 350.526 470.812 349.85 471.229 349.434C471.645 349.017 472.321 349.017 472.737 349.434L474.329 351.026L480.26 345.095C480.677 344.678 481.352 344.678 481.769 345.095C482.186 345.511 482.186 346.187 481.769 346.603Z" fill="#CECECE"/>
</g>
<circle class="dot" cx="476.5" cy="384" r="5" fill="#CECECE"/>
<path d="M404.671 420.4C404.671 418.784 405.231 417.408 406.351 416.288C407.471 415.152 408.847 414.592 410.463 414.592C412.079 414.592 413.455 415.152 414.575 416.288C415.711 417.408 416.271 418.784 416.271 420.4C416.271 422.016 415.711 423.376 414.575 424.512C413.455 425.648 412.079 426.208 410.463 426.208C408.847 426.208 407.471 425.648 406.351 424.512C405.231 423.376 404.671 422.016 404.671 420.4ZM414.783 420.4C414.783 419.168 414.367 418.128 413.535 417.296C412.719 416.448 411.695 416.032 410.463 416.032C409.231 416.032 408.207 416.448 407.375 417.296C406.559 418.128 406.143 419.168 406.143 420.4C406.143 421.632 406.559 422.656 407.375 423.504C408.207 424.336 409.231 424.752 410.463 424.752C411.695 424.752 412.719 424.336 413.535 423.504C414.367 422.656 414.783 421.632 414.783 420.4ZM426.347 426H424.699L422.187 421.712H419.547V426H418.059V414.8H422.539C423.499 414.8 424.315 415.136 425.003 415.824C425.691 416.496 426.027 417.312 426.027 418.272C426.027 418.992 425.803 419.664 425.371 420.256C424.939 420.848 424.395 421.28 423.707 421.52L426.347 426ZM422.539 416.192H419.547V420.368H422.539C423.099 420.368 423.563 420.16 423.947 419.76C424.347 419.344 424.539 418.848 424.539 418.272C424.539 417.696 424.347 417.2 423.947 416.8C423.563 416.4 423.099 416.192 422.539 416.192ZM427.841 414.8H432.209C433.729 414.8 434.993 415.344 436.001 416.432C437.009 417.504 437.521 418.832 437.521 420.4C437.521 421.968 437.009 423.296 436.001 424.384C434.993 425.456 433.729 426 432.209 426H427.841V414.8ZM429.329 424.592H432.209C433.345 424.592 434.289 424.192 435.009 423.392C435.729 422.592 436.097 421.6 436.097 420.4C436.097 419.2 435.729 418.208 435.009 417.408C434.289 416.608 433.345 416.208 432.209 416.208H429.329V424.592ZM440.813 421.04V424.592H446.013V426H439.325V414.8H445.933V416.208H440.813V419.648H445.533V421.04H440.813ZM456.097 426H454.449L451.937 421.712H449.297V426H447.809V414.8H452.289C453.249 414.8 454.065 415.136 454.753 415.824C455.441 416.496 455.777 417.312 455.777 418.272C455.777 418.992 455.553 419.664 455.121 420.256C454.689 420.848 454.145 421.28 453.457 421.52L456.097 426ZM452.289 416.192H449.297V420.368H452.289C452.849 420.368 453.313 420.16 453.697 419.76C454.097 419.344 454.289 418.848 454.289 418.272C454.289 417.696 454.097 417.2 453.697 416.8C453.313 416.4 452.849 416.192 452.289 416.192ZM461.591 414.8H465.655C466.695 414.8 467.543 415.152 468.231 415.84C468.919 416.528 469.271 417.376 469.271 418.4C469.271 419.408 468.919 420.272 468.231 420.96C467.543 421.648 466.695 422 465.655 422H463.079V426H461.591V414.8ZM463.079 420.608H465.655C466.279 420.608 466.791 420.4 467.191 419.984C467.591 419.552 467.799 419.024 467.799 418.4C467.799 417.12 466.887 416.192 465.655 416.192H463.079V420.608ZM472.516 414.8V424.592H477.348V426H471.028V414.8H472.516ZM488.113 426H486.529L485.617 423.488H480.577L479.665 426H478.081L482.257 414.8H483.937L488.113 426ZM483.089 416.576L481.089 422.096H485.105L483.089 416.576ZM494.292 426.208C492.596 426.208 491.188 425.648 490.084 424.528C488.98 423.408 488.436 422.032 488.436 420.4C488.436 418.768 488.98 417.392 490.084 416.272C491.188 415.152 492.596 414.592 494.292 414.592C496.34 414.592 498.164 415.648 499.124 417.312L497.828 418.064C497.188 416.832 495.828 416.032 494.292 416.032C492.996 416.032 491.94 416.448 491.124 417.28C490.308 418.112 489.908 419.152 489.908 420.4C489.908 421.632 490.308 422.672 491.124 423.504C491.94 424.336 492.996 424.752 494.292 424.752C495.828 424.752 497.188 423.952 497.828 422.736L499.124 423.472C498.66 424.304 497.988 424.976 497.124 425.472C496.26 425.968 495.316 426.208 494.292 426.208ZM502.297 421.04V424.592H507.497V426H500.809V414.8H507.417V416.208H502.297V419.648H507.017V421.04H502.297ZM518.094 414.8H519.774V426H518.302V417.248L514.638 423.344H514.446L510.782 417.264V426H509.294V414.8H510.974L514.542 420.72L518.094 414.8ZM523.657 421.04V424.592H528.857V426H522.169V414.8H528.777V416.208H523.657V419.648H528.377V421.04H523.657ZM537.613 423.152V414.8H539.101V426H537.901L532.141 417.632V426H530.653V414.8H531.853L537.613 423.152ZM540.585 414.8H548.665V416.208H545.353V426H543.881V416.208H540.585V414.8Z" fill="#585858"/>
<path d="M310.211 353.724L309.94 353.256C308.531 350.82 305.911 349.308 303.101 349.308H284C284.165 354.551 288.482 358.765 293.764 358.765H315.999V353.724H310.211V353.724ZM295.823 353.724H293.791V351.848H295.823V353.724ZM299.762 353.724H297.73V351.848H299.762V353.724ZM303.7 353.724H301.668V351.848H303.7V353.724Z" fill="#CECECE"/>
<path d="M316 341.11V339.234H315.605H314.05H310.258L308.66 342.261H299.583C297.791 342.261 296.283 343.496 295.863 345.16H294.58C293.021 345.16 291.678 346.095 291.078 347.433H303.101C306.394 347.433 309.477 349.112 311.275 351.849H314.621V347.035H316V345.16H314.621H313.246H312.477L314.615 341.11H316V341.11Z" fill="#CECECE"/>
<circle class="dot" cx="300" cy="384" r="5" fill="#CECECE"/>
<path d="M240.168 426.208C238.072 426.208 236.52 425.168 235.928 423.456L237.208 422.72C237.64 424.08 238.648 424.752 240.2 424.752C241.736 424.752 242.568 424.064 242.568 423.024C242.568 422.496 242.36 422.096 241.96 421.824C241.56 421.552 240.872 421.28 239.928 420.976L238.856 420.624C238.616 420.528 238.296 420.384 237.928 420.208C237.56 420.016 237.288 419.824 237.112 419.632C236.744 419.232 236.408 418.576 236.408 417.76C236.408 416.784 236.744 416.016 237.432 415.456C238.12 414.88 238.952 414.592 239.928 414.592C241.704 414.592 243.064 415.568 243.72 417.04L242.472 417.76C241.992 416.608 241.144 416.032 239.928 416.032C238.712 416.032 237.896 416.672 237.896 417.696C237.896 418.192 238.072 418.56 238.424 418.816C238.776 419.072 239.384 419.344 240.248 419.616L240.904 419.824C241.032 419.872 241.224 419.936 241.496 420.048C242.056 420.256 242.184 420.336 242.616 420.576C243.064 420.816 243.208 420.992 243.48 421.312C243.88 421.712 244.04 422.288 244.04 422.992C244.04 423.968 243.688 424.752 242.968 425.344C242.248 425.92 241.32 426.208 240.168 426.208ZM254.59 426H253.006L252.094 423.488H247.054L246.142 426H244.558L248.734 414.8H250.414L254.59 426ZM249.566 416.576L247.566 422.096H251.582L249.566 416.576ZM264.711 414.8H266.391V426H264.919V417.248L261.255 423.344H261.063L257.399 417.264V426H255.911V414.8H257.591L261.159 420.72L264.711 414.8ZM268.786 414.8H272.85C273.89 414.8 274.738 415.152 275.426 415.84C276.114 416.528 276.466 417.376 276.466 418.4C276.466 419.408 276.114 420.272 275.426 420.96C274.738 421.648 273.89 422 272.85 422H270.274V426H268.786V414.8ZM270.274 420.608H272.85C273.474 420.608 273.986 420.4 274.386 419.984C274.786 419.552 274.994 419.024 274.994 418.4C274.994 417.12 274.082 416.192 272.85 416.192H270.274V420.608ZM279.711 414.8V424.592H284.543V426H278.223V414.8H279.711ZM287.524 421.04V424.592H292.724V426H286.036V414.8H292.644V416.208H287.524V419.648H292.244V421.04H287.524ZM302.136 426.208C300.04 426.208 298.488 425.168 297.896 423.456L299.176 422.72C299.608 424.08 300.616 424.752 302.168 424.752C303.704 424.752 304.536 424.064 304.536 423.024C304.536 422.496 304.328 422.096 303.928 421.824C303.528 421.552 302.84 421.28 301.896 420.976L300.824 420.624C300.584 420.528 300.264 420.384 299.896 420.208C299.528 420.016 299.256 419.824 299.08 419.632C298.712 419.232 298.376 418.576 298.376 417.76C298.376 416.784 298.712 416.016 299.4 415.456C300.088 414.88 300.92 414.592 301.896 414.592C303.672 414.592 305.032 415.568 305.688 417.04L304.44 417.76C303.96 416.608 303.112 416.032 301.896 416.032C300.68 416.032 299.864 416.672 299.864 417.696C299.864 418.192 300.04 418.56 300.392 418.816C300.744 419.072 301.352 419.344 302.216 419.616L302.872 419.824C303 419.872 303.192 419.936 303.464 420.048C304.024 420.256 304.152 420.336 304.584 420.576C305.032 420.816 305.176 420.992 305.448 421.312C305.848 421.712 306.008 422.288 306.008 422.992C306.008 423.968 305.656 424.752 304.936 425.344C304.216 425.92 303.288 426.208 302.136 426.208ZM309.18 421.04V424.592H314.38V426H307.692V414.8H314.3V416.208H309.18V419.648H313.9V421.04H309.18ZM323.137 423.152V414.8H324.625V426H323.425L317.665 417.632V426H316.177V414.8H317.377L323.137 423.152ZM327.02 414.8H331.388C332.908 414.8 334.172 415.344 335.18 416.432C336.188 417.504 336.7 418.832 336.7 420.4C336.7 421.968 336.188 423.296 335.18 424.384C334.172 425.456 332.908 426 331.388 426H327.02V414.8ZM328.508 424.592H331.388C332.524 424.592 333.468 424.192 334.188 423.392C334.908 422.592 335.276 421.6 335.276 420.4C335.276 419.2 334.908 418.208 334.188 417.408C333.468 416.608 332.524 416.208 331.388 416.208H328.508V424.592ZM338.505 426V414.8H339.993V426H338.505ZM349.355 423.152V414.8H350.843V426H349.643L343.883 417.632V426H342.395V414.8H343.595L349.355 423.152ZM358.439 420.448H364.039V421.12C364.039 422.576 363.543 423.792 362.535 424.768C361.527 425.728 360.199 426.208 358.551 426.208C356.839 426.208 355.431 425.648 354.311 424.528C353.207 423.392 352.647 422.016 352.647 420.4C352.647 418.784 353.207 417.408 354.311 416.288C355.431 415.152 356.839 414.592 358.519 414.592C359.559 414.592 360.503 414.848 361.367 415.344C362.231 415.84 362.903 416.48 363.367 417.296L362.087 418.048C361.447 416.832 360.055 416.032 358.503 416.032C357.223 416.032 356.167 416.448 355.351 417.296C354.535 418.128 354.119 419.168 354.119 420.4C354.119 421.632 354.535 422.672 355.351 423.504C356.183 424.336 357.255 424.752 358.567 424.752C360.807 424.752 362.247 423.536 362.551 421.792H358.439V420.448Z" fill="#585858"/>
<defs>
<clipPath id="clip0_395_7967">
<rect width="32" height="32" fill="white" transform="translate(284.5 7)"/>
</clipPath>
<clipPath id="clip1_395_7967">
<rect width="32" height="32" fill="white" transform="translate(460.5 7)"/>
</clipPath>
<clipPath id="clip2_395_7967">
<rect width="32" height="32" fill="white" transform="translate(95.373 22.627) rotate(-45)"/>
</clipPath>
<clipPath id="clip3_395_7967">
<rect width="32" height="32" fill="white" transform="translate(461.5 165)"/>
</clipPath>
<clipPath id="clip4_395_7967">
<rect width="32" height="32" fill="white" transform="translate(284.5 165)"/>
</clipPath>
<clipPath id="clip5_395_7967">
<rect width="32" height="32" fill="white" transform="translate(101.5 165)"/>
</clipPath>
<clipPath id="clip6_395_7967">
<rect width="32" height="32" fill="white" transform="translate(102 333)"/>
</clipPath>
<clipPath id="clip7_395_7967">
<rect width="32" height="32" fill="white" transform="translate(460.5 333)"/>
</clipPath>
</defs>
</svg>
